<svg preserveAspectRatio="none" width="100%" height="100%" overflow="visible" style="display: block;" viewBox="0 0 14 14" fill="none" xmlns="http://www.w3.org/2000/svg">
<g id="Frame">
<path id="Vector" fill-rule="evenodd" clip-rule="evenodd" d="M6.99935 1.89453C5.55636 1.89453 4.18362 1.98764 2.94373 2.15567C1.62379 2.33454 0.728516 3.49424 0.728516 4.78126V9.21612C0.728516 10.5031 1.62379 11.6629 2.94373 11.8417C4.18362 12.0098 5.55636 12.1029 6.99935 12.1029C8.44234 12.1029 9.8151 12.0098 11.055 11.8417C12.3749 11.6629 13.2702 10.5031 13.2702 9.21612V4.78127C13.2702 3.49424 12.3749 2.33454 11.055 2.15567C9.8151 1.98764 8.44234 1.89453 6.99935 1.89453ZM6.05779 4.87354C5.92263 4.79245 5.75429 4.79033 5.61713 4.86799C5.47996 4.94564 5.39518 5.09108 5.39518 5.2487V8.7487C5.39518 8.90632 5.47996 9.05174 5.61713 9.12938C5.75429 9.20708 5.92263 9.20492 6.05779 9.12384L8.97446 7.37384C9.10623 7.2948 9.18685 7.15235 9.18685 6.9987C9.18685 6.84505 9.10623 6.7026 8.97446 6.62356L6.05779 4.87354Z" fill="var(--fill-0, #E4E4E4)"/>
</g>
</svg>
