<svg preserveAspectRatio="none" width="100%" height="100%" overflow="visible" style="display: block;" viewBox="0 0 14 14" fill="none" xmlns="http://www.w3.org/2000/svg">
<g id="Frame" clip-path="url(#clip0_2183_2893)">
<path id="Vector" fill-rule="evenodd" clip-rule="evenodd" d="M7.00033 0.730469C3.53704 0.730469 0.729492 3.53802 0.729492 7.0013C0.729492 10.4646 3.53704 13.2721 7.00033 13.2721C10.4636 13.2721 13.2712 10.4646 13.2712 7.0013C13.2712 3.53802 10.4636 0.730469 7.00033 0.730469ZM4.25425 5.60078C5.0075 5.28207 5.83681 5.10547 6.70878 5.10547C8.0253 5.10547 9.24575 5.50814 10.2539 6.19601C10.4534 6.33222 10.7257 6.28083 10.8618 6.08121C10.998 5.88165 10.9466 5.60943 10.747 5.47325C9.59791 4.68916 8.20643 4.23047 6.70878 4.23047C5.71766 4.23047 4.77256 4.43138 3.91329 4.79495C3.69077 4.8891 3.5867 5.14582 3.68086 5.36834C3.77501 5.59087 4.03172 5.69493 4.25425 5.60078ZM4.51456 7.45607C5.11163 7.25581 5.75123 7.14714 6.41711 7.14714C7.51786 7.14714 8.54791 7.44417 9.43288 7.96223C9.64142 8.08426 9.90941 8.0142 10.0315 7.80566C10.1535 7.59712 10.0834 7.32914 9.87493 7.20704C8.85947 6.61269 7.6774 6.27214 6.41711 6.27214C5.65543 6.27214 4.92193 6.39656 4.23632 6.62645C4.00724 6.70334 3.88381 6.95131 3.96065 7.18039C4.03748 7.40946 4.28547 7.53289 4.51456 7.45607ZM5.15112 9.35721C5.55433 9.24749 5.97903 9.1888 6.41816 9.1888C7.21441 9.1888 7.96428 9.38183 8.62473 9.72325C8.8394 9.83426 9.10336 9.7502 9.21431 9.53554C9.32526 9.32093 9.2412 9.05697 9.02659 8.94602C8.24481 8.54183 7.35744 8.3138 6.41816 8.3138C5.90074 8.3138 5.39877 8.38299 4.92137 8.51289C4.68823 8.57636 4.55065 8.81681 4.6141 9.04997C4.67754 9.28307 4.91798 9.42068 5.15112 9.35721Z" fill="var(--fill-0, #E4E4E4)"/>
</g>
<defs>
<clipPath id="clip0_2183_2893">
<rect width="14" height="14" fill="white"/>
</clipPath>
</defs>
</svg>
