<svg preserveAspectRatio="none" width="100%" height="100%" overflow="visible" style="display: block;" viewBox="0 0 14 14" fill="none" xmlns="http://www.w3.org/2000/svg">
<g id="Frame">
<path id="Vector" fill-rule="evenodd" clip-rule="evenodd" d="M2.33398 1.3125C2.09236 1.3125 1.89648 1.50838 1.89648 1.75V9.625C1.89648 9.86533 2.09036 10.0607 2.33068 10.0625L3.64648 10.0724V12.25C3.64648 12.4311 3.75805 12.5935 3.9271 12.6584C4.09614 12.7233 4.28773 12.6774 4.40897 12.5429L6.63268 10.0757H9.9228C10.0396 10.0757 10.1516 10.029 10.2338 9.94589L11.9783 8.18271C12.0594 8.10081 12.1048 7.99021 12.1048 7.875V1.75C12.1048 1.50838 11.9089 1.3125 11.6673 1.3125H2.33398ZM7.58457 4.08347C7.58463 3.76131 7.32353 3.50008 7.00135 3.5C6.67918 3.49992 6.41796 3.76102 6.4179 4.08319L6.41732 6.41655C6.41726 6.73867 6.67836 6.99994 7.00053 7C7.32265 7.00006 7.58393 6.73896 7.58398 6.41678L7.58457 4.08347ZM9.9179 4.08347C9.91796 3.76131 9.65686 3.50008 9.33468 3.5C9.01251 3.49992 8.75129 3.76102 8.75124 4.08319L8.75065 6.41655C8.75059 6.73867 9.01169 6.99994 9.33387 7C9.65598 7.00006 9.91726 6.73896 9.91732 6.41678L9.9179 4.08347Z" fill="var(--fill-0, #E4E4E4)"/>
</g>
</svg>
