<svg preserveAspectRatio="none" width="100%" height="100%" overflow="visible" style="display: block;" viewBox="0 0 16 16" fill="none" xmlns="http://www.w3.org/2000/svg">
<g id="Frame">
<path id="Vector" d="M8.19468 3.52719C8.43875 3.28311 8.82475 3.26805 9.08662 3.48161L9.13735 3.52719L13.1373 7.52717L13.1829 7.57797C13.3965 7.83983 13.3814 8.22583 13.1373 8.4699L9.13735 12.4699C8.87702 12.7302 8.45502 12.7302 8.19468 12.4699C7.93435 12.2096 7.93435 11.7876 8.19468 11.5272L11.0566 8.66523H3.33268C2.9645 8.66523 2.66602 8.3667 2.66602 7.99857C2.66602 7.63037 2.9645 7.3319 3.33268 7.3319H11.0566L8.19468 4.4699L8.14908 4.41912C7.93555 4.15727 7.95062 3.77127 8.19468 3.52719Z" fill="var(--fill-0, white)"/>
</g>
</svg>
