<svg preserveAspectRatio="none" width="100%" height="100%" overflow="visible" style="display: block;" viewBox="0 0 16 16" fill="none" xmlns="http://www.w3.org/2000/svg">
<g id="Frame">
<path id="Vector" d="M5.76199 2.60294L4.62544 3.01769C2.87515 3.65642 2 3.97577 2 4.5C2 5.02423 2.87515 5.34358 4.62545 5.98231L5.76199 6.39705C6.86347 6.799 7.41427 7 8 7C8.58573 7 9.13653 6.799 10.238 6.39705L11.3745 5.98231C13.1249 5.34358 14 5.02423 14 4.5C14 3.97577 13.1249 3.65642 11.3745 3.01769L10.238 2.60294C9.13653 2.20098 8.58573 2 8 2C7.41427 2 6.86347 2.20098 5.76199 2.60294Z" stroke="var(--stroke-0, #E4E4E4)" stroke-width="1.25" stroke-linecap="round" stroke-linejoin="round"/>
<path id="Vector_2" d="M13.8587 7.39844C13.9529 7.5309 14 7.66904 14 7.8209C14 8.47544 13.1249 8.87424 11.3745 9.67177L10.238 10.1896C9.13653 10.6915 8.58573 10.9425 8 10.9425C7.41427 10.9425 6.86347 10.6915 5.76199 10.1896L4.62545 9.67177C2.87515 8.87424 2 8.47544 2 7.8209C2 7.66904 2.04711 7.5309 2.14133 7.39844" stroke="var(--stroke-0, #E4E4E4)" stroke-width="1.25" stroke-linecap="round" stroke-linejoin="round"/>
<path id="Vector_3" d="M13.5845 10.8438C13.8615 11.0644 14 11.2844 14 11.5448C14 12.1994 13.1249 12.5981 11.3745 13.3956L10.238 13.9135C9.13653 14.4154 8.58573 14.6664 8 14.6664C7.41427 14.6664 6.86347 14.4154 5.76199 13.9135L4.62545 13.3956C2.87515 12.5981 2 12.1994 2 11.5448C2 11.2844 2.13852 11.0644 2.41556 10.8438" stroke="var(--stroke-0, #E4E4E4)" stroke-width="1.25" stroke-linecap="round" stroke-linejoin="round"/>
</g>
</svg>
