<svg preserveAspectRatio="none" width="100%" height="100%" overflow="visible" style="display: block;" viewBox="0 0 16 16" fill="none" xmlns="http://www.w3.org/2000/svg">
<g id="Frame">
<path id="Vector" fill-rule="evenodd" clip-rule="evenodd" d="M6.33301 8.00065C6.33301 7.63245 6.63149 7.33398 6.99967 7.33398H8.99967C9.36787 7.33398 9.66634 7.63245 9.66634 8.00065C9.66634 8.36885 9.36787 8.66732 8.99967 8.66732H6.99967C6.63149 8.66732 6.33301 8.36885 6.33301 8.00065ZM6.33301 10.6673C6.33301 10.2991 6.63149 10.0007 6.99967 10.0007H8.99967C9.36787 10.0007 9.66634 10.2991 9.66634 10.6673C9.66634 11.0355 9.36787 11.334 8.99967 11.334H6.99967C6.63149 11.334 6.33301 11.0355 6.33301 10.6673ZM6.33301 13.334C6.33301 12.9658 6.63149 12.6673 6.99967 12.6673H8.99967C9.36787 12.6673 9.66634 12.9658 9.66634 13.334C9.66634 13.7022 9.36787 14.0007 8.99967 14.0007H6.99967C6.63149 14.0007 6.33301 13.7022 6.33301 13.334Z" fill="var(--fill-0, #E4E4E4)"/>
<path id="Vector_2" fill-rule="evenodd" clip-rule="evenodd" d="M10.667 5.33268C10.667 4.9645 10.9655 4.66602 11.3337 4.66602H13.3337C13.7019 4.66602 14.0003 4.9645 14.0003 5.33268C14.0003 5.70087 13.7019 5.99935 13.3337 5.99935H11.3337C10.9655 5.99935 10.667 5.70087 10.667 5.33268ZM10.667 7.99935C10.667 7.63115 10.9655 7.33268 11.3337 7.33268H13.3337C13.7019 7.33268 14.0003 7.63115 14.0003 7.99935C14.0003 8.36755 13.7019 8.66602 13.3337 8.66602H11.3337C10.9655 8.66602 10.667 8.36755 10.667 7.99935ZM10.667 10.666C10.667 10.2978 10.9655 9.99935 11.3337 9.99935H13.3337C13.7019 9.99935 14.0003 10.2978 14.0003 10.666C14.0003 11.0342 13.7019 11.3327 13.3337 11.3327H11.3337C10.9655 11.3327 10.667 11.0342 10.667 10.666ZM10.667 13.3327C10.667 12.9645 10.9655 12.666 11.3337 12.666H13.3337C13.7019 12.666 14.0003 12.9645 14.0003 13.3327C14.0003 13.7009 13.7019 13.9993 13.3337 13.9993H11.3337C10.9655 13.9993 10.667 13.7009 10.667 13.3327Z" fill="var(--fill-0, #E4E4E4)"/>
<path id="Vector_3" fill-rule="evenodd" clip-rule="evenodd" d="M2 2.66667C2 2.29848 2.29848 2 2.66667 2H4.66667C5.03485 2 5.33333 2.29848 5.33333 2.66667C5.33333 3.03485 5.03485 3.33333 4.66667 3.33333H2.66667C2.29848 3.33333 2 3.03485 2 2.66667ZM2 5.33333C2 4.96515 2.29848 4.66667 2.66667 4.66667H4.66667C5.03485 4.66667 5.33333 4.96515 5.33333 5.33333C5.33333 5.70152 5.03485 6 4.66667 6H2.66667C2.29848 6 2 5.70152 2 5.33333ZM2 8C2 7.6318 2.29848 7.33333 2.66667 7.33333H4.66667C5.03485 7.33333 5.33333 7.6318 5.33333 8C5.33333 8.3682 5.03485 8.66667 4.66667 8.66667H2.66667C2.29848 8.66667 2 8.3682 2 8ZM2 10.6667C2 10.2985 2.29848 10 2.66667 10H4.66667C5.03485 10 5.33333 10.2985 5.33333 10.6667C5.33333 11.0349 5.03485 11.3333 4.66667 11.3333H2.66667C2.29848 11.3333 2 11.0349 2 10.6667ZM2 13.3333C2 12.9651 2.29848 12.6667 2.66667 12.6667H4.66667C5.03485 12.6667 5.33333 12.9651 5.33333 13.3333C5.33333 13.7015 5.03485 14 4.66667 14H2.66667C2.29848 14 2 13.7015 2 13.3333Z" fill="var(--fill-0, #E4E4E4)"/>
</g>
</svg>
