<svg preserveAspectRatio="none" width="100%" height="100%" overflow="visible" style="display: block;" viewBox="0 0 16 16" fill="none" xmlns="http://www.w3.org/2000/svg">
<g id="Frame">
<path id="Vector" fill-rule="evenodd" clip-rule="evenodd" d="M2 3.33464C2 2.96645 2.29848 2.66797 2.66667 2.66797H13.3333C13.7015 2.66797 14 2.96645 14 3.33464C14 3.70283 13.7015 4.0013 13.3333 4.0013H2.66667C2.29848 4.0013 2 3.70282 2 3.33464Z" fill="var(--fill-0, #E4E4E4)"/>
<path id="Vector_2" fill-rule="evenodd" clip-rule="evenodd" d="M2 7.9987C2 7.6305 2.29848 7.33203 2.66667 7.33203H13.3333C13.7015 7.33203 14 7.6305 14 7.9987C14 8.3669 13.7015 8.66536 13.3333 8.66536H2.66667C2.29848 8.66536 2 8.3669 2 7.9987Z" fill="var(--fill-0, #E4E4E4)"/>
<path id="Vector_3" fill-rule="evenodd" clip-rule="evenodd" d="M2 12.6667C2 12.2985 2.29848 12 2.66667 12H13.3333C13.7015 12 14 12.2985 14 12.6667C14 13.0349 13.7015 13.3333 13.3333 13.3333H2.66667C2.29848 13.3333 2 13.0349 2 12.6667Z" fill="var(--fill-0, #E4E4E4)"/>
</g>
</svg>
