<svg preserveAspectRatio="none" width="100%" height="100%" overflow="visible" style="display: block;" viewBox="0 0 16 16" fill="none" xmlns="http://www.w3.org/2000/svg">
<g id="Frame">
<path id="Vector" d="M2 7.99242V9.66602C2 11.8659 2 12.9658 2.68342 13.6493C3.36683 14.3327 4.46678 14.3327 6.66667 14.3327H9.33333C11.5332 14.3327 12.6331 14.3327 13.3166 13.6493C14 12.9658 14 11.8659 14 9.66602V7.99242C14 6.87155 14 6.31117 13.7627 5.82605C13.5255 5.34093 13.0831 4.99687 12.1984 4.30876L10.8651 3.27172C9.48873 2.20125 8.8006 1.66602 8 1.66602C7.1994 1.66602 6.51126 2.20125 5.13495 3.27172L3.80161 4.30876C2.91689 4.99687 2.47453 5.34093 2.23727 5.82605C2 6.31117 2 6.87155 2 7.99242Z" stroke="var(--stroke-0, #E4E4E4)" stroke-width="1.33333" stroke-linecap="round" stroke-linejoin="round"/>
<path id="Vector_2" d="M10.6654 11.334H5.33203" stroke="var(--stroke-0, #E4E4E4)" stroke-width="1.33333" stroke-linecap="round" stroke-linejoin="round"/>
</g>
</svg>
