<svg preserveAspectRatio="none" width="100%" height="100%" overflow="visible" style="display: block;" viewBox="0 0 16 16" fill="none" xmlns="http://www.w3.org/2000/svg">
<g id="Frame">
<path id="Vector" fill-rule="evenodd" clip-rule="evenodd" d="M10.8632 8.86127C11.1236 8.60093 11.5457 8.60093 11.806 8.86127L13.8061 10.8613C13.9311 10.9864 14.0014 11.1559 14.0014 11.3328C14.0014 11.5096 13.9311 11.6791 13.806 11.8042L11.806 13.8041C11.5456 14.0644 11.1236 14.0644 10.8632 13.8041C10.6029 13.5437 10.6029 13.1216 10.8632 12.8613L12.3918 11.3327L10.8632 9.80407C10.6029 9.54373 10.6029 9.1216 10.8632 8.86127Z" fill="var(--fill-0, #E4E4E4)"/>
<path id="Vector_2" fill-rule="evenodd" clip-rule="evenodd" d="M2 4.66667C2 4.29848 2.29848 4 2.66667 4H13.3333C13.7015 4 14 4.29848 14 4.66667C14 5.03485 13.7015 5.33333 13.3333 5.33333H2.66667C2.29848 5.33333 2 5.03485 2 4.66667Z" fill="var(--fill-0, #E4E4E4)"/>
<path id="Vector_3" fill-rule="evenodd" clip-rule="evenodd" d="M2 11.3327C2 10.9645 2.29848 10.666 2.66667 10.666H13.3333C13.7015 10.666 14 10.9645 14 11.3327C14 11.7009 13.7015 11.9993 13.3333 11.9993H2.66667C2.29848 11.9993 2 11.7009 2 11.3327Z" fill="var(--fill-0, #E4E4E4)"/>
<path id="Vector_4" fill-rule="evenodd" clip-rule="evenodd" d="M5.13809 2.19528C5.39843 2.45564 5.39841 2.87775 5.13805 3.13809L3.60947 4.66655L5.13809 6.19528C5.39843 6.45564 5.39841 6.87773 5.13805 7.13807C4.87769 7.3984 4.45559 7.3984 4.19525 7.13807L2.19525 5.1379C2.07023 5.01287 1.99999 4.8433 2 4.66649C2.00001 4.48968 2.07025 4.32011 2.19528 4.19509L4.19528 2.19525C4.45564 1.93491 4.87775 1.93492 5.13809 2.19528Z" fill="var(--fill-0, #E4E4E4)"/>
</g>
</svg>
