<svg preserveAspectRatio="none" width="100%" height="100%" overflow="visible" style="display: block;" viewBox="0 0 16 16" fill="none" xmlns="http://www.w3.org/2000/svg">
<g id="Frame" clip-path="url(#clip0_2183_2848)">
<path id="Vector" fill-rule="evenodd" clip-rule="evenodd" d="M0.666016 8.0013C0.666016 3.95122 3.94926 0.667969 7.99935 0.667969C10.7164 0.667969 13.0667 2.14574 14.3261 4.3356C14.5903 4.79506 14.8068 5.28606 14.9687 5.80154C15.0323 6.00403 14.9957 6.22471 14.8701 6.39581C14.7445 6.5669 14.5449 6.66797 14.3327 6.66797H12.666C12.4089 6.66797 12.1747 6.5201 12.0641 6.28797C11.9535 6.05583 11.9863 5.7808 12.1483 5.58116L12.9306 4.61742C11.8562 3.03582 10.0558 2.0013 7.99935 2.0013C4.68564 2.0013 1.99935 4.6876 1.99935 8.0013C1.99935 11.315 4.68562 14.0013 7.99935 14.0013C8.36748 14.0013 8.66602 14.2998 8.66602 14.668C8.66602 15.0362 8.36748 15.3346 7.99935 15.3346C3.94923 15.3346 0.666016 12.0514 0.666016 8.0013Z" fill="var(--fill-0, #E4E4E4)"/>
<path id="Vector_2" fill-rule="evenodd" clip-rule="evenodd" d="M8.00065 4.66797C8.36885 4.66797 8.66732 4.96645 8.66732 5.33464V7.72517L9.80538 8.86324C10.0657 9.12357 10.0657 9.5457 9.80538 9.80604C9.54505 10.0664 9.12292 10.0664 8.86258 9.80604L7.52925 8.4727C7.40425 8.3477 7.33398 8.1781 7.33398 8.0013V5.33464C7.33398 4.96645 7.63245 4.66797 8.00065 4.66797Z" fill="var(--fill-0, #E4E4E4)"/>
<path id="Vector_3" fill-rule="evenodd" clip-rule="evenodd" d="M14.6675 7.33203C15.0357 7.33203 15.3342 7.6305 15.3342 7.9987C15.3342 8.24363 15.3231 8.48596 15.3015 8.72536C15.2684 9.09203 14.9443 9.36243 14.5776 9.3293C14.2109 9.29623 13.9405 8.9721 13.9736 8.60536C13.9916 8.4059 14.0009 8.2035 14.0009 7.9987C14.0009 7.6305 14.2993 7.33203 14.6675 7.33203ZM14.4392 9.93896C14.7837 10.0688 14.9579 10.4533 14.8281 10.7978C14.7191 11.0872 14.5937 11.3681 14.453 11.6392C14.2833 11.966 13.8809 12.0934 13.5541 11.9238C13.2273 11.7542 13.0999 11.3517 13.2695 11.0249C13.386 10.8005 13.4899 10.5678 13.5803 10.3278C13.7101 9.9833 14.0947 9.80916 14.4392 9.93896ZM13.2335 12.3811C13.5034 12.6316 13.5191 13.0534 13.2687 13.3232C13.0451 13.564 12.8065 13.7896 12.5542 13.9984C12.2705 14.2332 11.8503 14.1936 11.6155 13.9099C11.3808 13.6262 11.4205 13.206 11.7041 12.9712C11.9111 12.8 12.1073 12.6145 12.2914 12.4162C12.5419 12.1463 12.9637 12.1306 13.2335 12.3811ZM11.2737 14.1263C11.4269 14.4611 11.2798 14.8568 10.9451 15.01C10.7063 15.1194 10.4607 15.2158 10.2093 15.2986C9.85953 15.4137 9.48273 15.2235 9.36759 14.8738C9.25246 14.5241 9.44266 14.1472 9.79239 14.0321C9.99639 13.965 10.1958 13.8866 10.39 13.7977C10.7247 13.6444 11.1204 13.7916 11.2737 14.1263Z" fill="var(--fill-0, #E4E4E4)"/>
</g>
<defs>
<clipPath id="clip0_2183_2848">
<rect width="16" height="16" fill="white"/>
</clipPath>
</defs>
</svg>
